<svg width="236" height="26" fill="none" xmlns="http://www.w3.org/2000/svg"><path fill-rule="evenodd" clip-rule="evenodd" d="M75.651 23.304c0 .507-.255.76-.766.76h-8.997a.745.745 0 0 1-.53-.19c-.135-.127-.203-.306-.203-.537a.77.77 0 0 1 .138-.48.977.977 0 0 1 .432-.297l.701-.215a.73.73 0 0 0 .407-.314c.098-.154.147-.375.147-.661v-9.554a.643.643 0 0 0-.114-.388c-.076-.105-.217-.202-.424-.29l-.945-.314c-.25-.121-.43-.25-.538-.388a.788.788 0 0 1-.163-.504c0-.199.068-.361.204-.488l.053-.044a.83.83 0 0 1 .51-.146h1.43l-.012-.097a1.348 1.348 0 0 0-.229-.556l-.554-.802a5.237 5.237 0 0 1-.554-1.066c-.163-.413-.245-.923-.245-1.529 0-1.443.49-2.597 1.467-3.462C67.844.877 69.235.444 71.04.444c1.162 0 2.126.187 2.893.562.766.375 1.339.873 1.72 1.496.38.623.57 1.303.57 2.041 0 .87-.226 1.524-.677 1.959-.45.435-1.03.653-1.736.653-.782 0-1.412-.254-1.89-.76-.478-.507-.718-1.18-.718-2.017V2.907c0-.386-.075-.67-.228-.851-.152-.182-.385-.273-.7-.273-.402 0-.707.138-.913.413-.207.276-.31.672-.31 1.19 0 .53.122 1.025.367 1.488.244.463.546.895.904 1.297.359.403.718.788 1.076 1.157.359.37.66.733.905 1.091l.07.108c.131.214.22.428.263.64l.015.087h2.414c.25 0 .443.052.579.157.136.105.204.267.204.488 0 .33-.142.6-.424.81-.283.209-.728.314-1.337.314H72.93V21.32c0 .309.046.546.139.71a.589.589 0 0 0 .448.298l1.402.215c.25.033.434.113.554.24.12.127.18.3.18.52Zm-32.092.38c-.978.474-2.119.71-3.423.71-1.38 0-2.616-.291-3.708-.875a6.4 6.4 0 0 1-2.583-2.538c-.63-1.107-.945-2.454-.945-4.041 0-1.532.328-2.9.986-4.108a7.38 7.38 0 0 1 2.746-2.859c1.174-.7 2.543-1.05 4.107-1.05 1.337 0 2.464.199 3.382.595.918.397 1.62.934 2.103 1.612a3.82 3.82 0 0 1 .725 2.273c0 .881-.252 1.573-.758 2.074-.505.502-1.192.752-2.062.752-.89 0-1.567-.256-2.029-.768-.462-.513-.692-1.215-.692-2.108v-1.058c0-.54-.098-.947-.294-1.223-.195-.275-.472-.413-.831-.413s-.682.146-.97.438c-.288.292-.51.73-.668 1.314-.158.584-.236 1.306-.236 2.165 0 1.234.182 2.27.546 3.108.364.837.86 1.465 1.49 1.884.631.419 1.348.628 2.152.628s1.478-.118 2.021-.355c.544-.237.962-.637 1.255-1.199.163-.154.291-.253.383-.297a.622.622 0 0 1 .27-.066.374.374 0 0 1 .268.157c.07.093.1.24.09.438-.087 1.08-.418 2.033-.994 2.86-.576.826-1.353 1.476-2.331 1.95Zm16.568-.33c-1.223.671-2.644 1.007-4.263 1.007-1.575 0-2.958-.327-4.147-.983a7.068 7.068 0 0 1-2.78-2.719c-.662-1.157-.994-2.496-.994-4.017 0-1.454.348-2.763 1.044-3.925.695-1.163 1.657-2.086 2.884-2.769 1.228-.683 2.64-1.025 4.238-1.025 1.586 0 2.972.331 4.156.992a7.106 7.106 0 0 1 2.77 2.744c.664 1.168.995 2.518.995 4.05 0 1.454-.345 2.757-1.035 3.909-.69 1.151-1.646 2.063-2.868 2.735Zm-3.024-.712c-.337.067-.665-.082-.986-.446-.32-.364-.625-.975-.913-1.835-.288-.86-.562-1.989-.823-3.388-.25-1.4-.39-2.55-.423-3.454-.033-.904.032-1.587.195-2.05.163-.463.413-.733.75-.81.337-.066.665.083.986.446.32.364.627.976.92 1.835.294.86.571 1.989.832 3.388.26 1.4.405 2.554.432 3.463.027.91-.044 1.595-.212 2.058-.168.463-.421.727-.758.793Zm29.158 1.422c.511 0 .767-.253.767-.76 0-.22-.06-.394-.18-.521s-.304-.207-.554-.24l-1.402-.215a.589.589 0 0 1-.448-.297c-.092-.165-.138-.402-.138-.71V11.022h1.157c.608 0 1.054-.105 1.336-.314.283-.21.424-.48.424-.81 0-.22-.068-.383-.204-.488-.135-.105-.328-.157-.578-.157h-2.414l-.015-.087a1.998 1.998 0 0 0-.264-.64l-.07-.108a8.286 8.286 0 0 0-.904-1.09c-.359-.37-.718-.755-1.076-1.158a6.526 6.526 0 0 1-.905-1.297 3.138 3.138 0 0 1-.366-1.488c0-.518.103-.914.31-1.19.206-.275.51-.413.912-.413.315 0 .549.09.7.273.153.181.229.465.229.85v1.472c0 .837.24 1.51.717 2.017.478.506 1.108.76 1.89.76.707 0 1.286-.218 1.737-.653.45-.435.676-1.088.676-1.959 0-.738-.19-1.418-.57-2.041-.38-.623-.954-1.121-1.72-1.496s-1.73-.562-2.893-.562c-1.804 0-3.195.433-4.172 1.298-.978.865-1.467 2.019-1.467 3.462 0 .606.081 1.116.244 1.53.163.413.348.768.554 1.065l.555.802c.122.178.198.363.229.556l.01.097h-1.43a.83.83 0 0 0-.508.146l-.054.044a.637.637 0 0 0-.203.488.79.79 0 0 0 .163.504c.108.138.288.267.538.388l.945.314c.206.088.347.185.424.29a.643.643 0 0 1 .114.388v9.554c0 .286-.05.507-.147.66a.73.73 0 0 1-.407.315l-.701.215a.977.977 0 0 0-.432.297.77.77 0 0 0-.139.48c0 .231.068.41.204.537.136.127.312.19.53.19h8.996Zm12.762-.48c-1.054.54-2.27.81-3.65.81-1.522 0-2.858-.316-4.01-.95a6.821 6.821 0 0 1-2.697-2.661c-.647-1.14-.97-2.46-.97-3.959 0-1.576.312-2.956.937-4.14a6.683 6.683 0 0 1 2.714-2.769c1.184-.661 2.608-.992 4.27-.992 1.412 0 2.63.279 3.65.835 1.022.557 1.807 1.311 2.356 2.265.549.953.823 2.013.823 3.181 0 .507-.136.907-.407 1.199l-.065.065c-.268.248-.637.373-1.109.373h-7.45l.015.076c.198.907.536 1.634 1.013 2.18.815.931 1.902 1.397 3.26 1.397.87 0 1.638-.199 2.306-.595.669-.397 1.117-.948 1.345-1.653.13-.143.247-.24.351-.29a.636.636 0 0 1 .268-.074c.109 0 .201.044.278.132.076.088.114.237.114.447 0 1.08-.294 2.069-.881 2.967-.586.898-1.407 1.617-2.46 2.157Zm-5.779-8.068a12.97 12.97 0 0 1-.023-.79c0-1.037.076-1.852.228-2.447.152-.595.348-1.017.587-1.265s.505-.372.799-.372c.38 0 .736.325 1.067.976.332.65.497 1.73.497 3.24 0 .462-.206.694-.62.694h-2.533l-.002-.036Zm21.361 8.069c-1.054.54-2.271.81-3.651.81-1.521 0-2.858-.317-4.009-.95a6.825 6.825 0 0 1-2.698-2.662c-.646-1.14-.97-2.46-.97-3.959 0-1.576.313-2.956.938-4.14a6.68 6.68 0 0 1 2.713-2.769c1.185-.661 2.608-.992 4.27-.992 1.413 0 2.63.279 3.651.835 1.022.557 1.807 1.311 2.356 2.265.548.953.823 2.013.823 3.181 0 .507-.136.907-.408 1.199l-.065.065c-.267.248-.637.373-1.108.373h-7.451l.016.076c.198.907.535 1.634 1.013 2.18.815.931 1.901 1.397 3.26 1.397.869 0 1.638-.199 2.306-.595.668-.397 1.116-.948 1.345-1.653.13-.143.247-.24.35-.29a.64.64 0 0 1 .269-.074c.109 0 .201.044.277.132.076.088.114.237.114.447a5.31 5.31 0 0 1-.88 2.967c-.587.898-1.407 1.617-2.461 2.157Zm-5.779-8.07a12.583 12.583 0 0 1-.023-.79c0-1.036.076-1.851.228-2.446.152-.595.347-1.017.587-1.265.239-.248.505-.372.798-.372.38 0 .736.325 1.068.976.331.65.497 1.73.497 3.24 0 .462-.207.694-.62.694h-2.533l-.002-.036Zm19.674 8.342c-.136.138-.335.207-.595.207h-8.15c-.239 0-.426-.066-.562-.198-.136-.133-.204-.314-.204-.546 0-.176.041-.322.122-.438.082-.116.193-.223.335-.322l.374-.149a.55.55 0 0 0 .294-.314c.054-.143.081-.38.081-.71v-8.398c0-.264-.03-.454-.089-.57a.622.622 0 0 0-.302-.272l-.424-.05a1.05 1.05 0 0 1-.334-.281.644.644 0 0 1-.106-.38c0-.177.055-.334.163-.471.109-.138.294-.256.555-.356l4.628-1.338c.272-.11.5-.188.685-.232a2.09 2.09 0 0 1 .473-.066c.184 0 .323.066.415.198l.03.048c.076.139.129.36.158.663l.124 2.569.028-.095a6.54 6.54 0 0 1 .182-.515c.396-.986.921-1.72 1.573-2.199.651-.479 1.363-.719 2.135-.719.934 0 1.651.314 2.151.943.5.628.75 1.58.75 2.86 0 1.266-.261 2.197-.783 2.792-.521.595-1.195.893-2.021.893-.804 0-1.399-.204-1.784-.612-.386-.407-.59-.986-.611-1.735l-.017-.661c-.011-.254-.06-.452-.146-.595-.087-.143-.229-.215-.424-.215-.196 0-.367.102-.514.306-.146.204-.258.515-.334.934-.076.418-.114.953-.114 1.603v5.818c0 .308.049.554.147.735.098.182.25.295.456.34l1.223.247c.228.033.391.119.489.256.097.138.146.3.146.488 0 .22-.068.4-.203.537Zm13.03.504c1.619 0 3.04-.336 4.262-1.008 1.223-.672 2.179-1.584 2.869-2.735.69-1.152 1.035-2.455 1.035-3.91 0-1.531-.331-2.881-.994-4.049a7.11 7.11 0 0 0-2.771-2.744c-1.184-.661-2.57-.992-4.156-.992-1.597 0-3.01.342-4.238 1.025-1.228.683-2.189 1.606-2.885 2.769-.695 1.162-1.043 2.47-1.043 3.925 0 1.521.332 2.86.994 4.017a7.075 7.075 0 0 0 2.779 2.719c1.19.656 2.573.983 4.148.983Zm.253-2.165c.321.364.649.513.986.446.337-.066.589-.33.758-.793.168-.463.239-1.149.212-2.058-.027-.909-.171-2.063-.432-3.463s-.538-2.528-.831-3.388c-.294-.86-.601-1.471-.921-1.835-.321-.363-.649-.512-.986-.446-.337.077-.587.347-.75.81-.163.463-.228 1.146-.196 2.05.033.903.174 2.055.424 3.454.261 1.4.535 2.529.823 3.388.288.86.592 1.471.913 1.835Zm20.838 2.198c.913 0 1.662-.167 2.249-.504.587-.336 1.024-.735 1.312-1.198.288-.463.432-.887.432-1.273a.748.748 0 0 0-.106-.413.325.325 0 0 0-.285-.165.321.321 0 0 0-.147.033.333.333 0 0 0-.114.099c-.054.198-.138.336-.253.413a.64.64 0 0 1-.366.116c-.185 0-.324-.063-.416-.19-.092-.127-.138-.295-.138-.504v-7.306c0-1.455-.492-2.581-1.475-3.38-.984-.8-2.524-1.199-4.621-1.199-1.63 0-2.991.204-4.083.612-1.092.408-1.912.928-2.461 1.562-.549.634-.823 1.281-.823 1.942 0 .705.204 1.243.611 1.612.408.369.997.553 1.768.553.946 0 1.69-.256 2.233-.768.544-.513.815-1.177.815-1.992v-1.256c0-.309.095-.548.286-.72.19-.17.426-.255.709-.255.304 0 .546.113.725.339.179.225.269.531.269.917l-.001 4.818-.086-.019a5.474 5.474 0 0 0-.911-.087l-.176-.001c-2.336 0-4.077.396-5.223 1.19-1.147.793-1.72 1.9-1.72 3.322 0 1.08.394 1.967 1.182 2.661.787.694 1.833 1.041 3.137 1.041.978 0 1.891-.2 2.738-.603.636-.302 1.152-.698 1.55-1.188l.022-.029.024.074c.125.357.355.677.689.96l.103.084c.603.468 1.453.703 2.551.703Zm-5.615-3.115c.266.358.617.537 1.051.537l.093-.003c.186-.013.365-.065.538-.155l.053-.03v-4.242l-.081-.025a2.532 2.532 0 0 0-.652-.074c-.423 0-.763.198-1.018.595-.256.397-.383.98-.383 1.752 0 .738.133 1.287.399 1.645Zm17.105 3.165c1.934 0 3.418-.446 4.45-1.339 1.032-.892 1.548-2.11 1.548-3.653 0-.936-.174-1.757-.521-2.463-.348-.705-.956-1.33-1.826-1.876-.869-.545-2.091-1.06-3.667-1.545-.587-.187-1.04-.377-1.361-.57-.32-.193-.54-.4-.66-.62a1.474 1.474 0 0 1-.179-.71c0-.375.136-.678.407-.91.272-.231.674-.347 1.206-.347.739 0 1.437.248 2.095.744.657.496 1.382 1.344 2.176 2.545.206.254.412.438.619.554.206.116.402.152.587.107a.573.573 0 0 0 .423-.454c.055-.237.044-.576-.032-1.017l-.424-3.041c-.043-.32-.125-.545-.244-.678a.607.607 0 0 0-.473-.198c-.174 0-.391.06-.652.182-.261.121-.519.245-.774.372-.256.126-.448.19-.579.19-.119 0-.296-.066-.529-.199-.234-.132-.563-.264-.987-.396-.423-.132-.972-.199-1.646-.199-1.119 0-2.127.204-3.023.612-.897.408-1.603.989-2.119 1.744-.516.755-.774 1.655-.774 2.702 0 .926.193 1.736.578 2.43.386.694.976 1.29 1.769 1.785.793.496 1.793.898 2.999 1.207.782.21 1.382.421 1.801.636.418.215.706.45.864.703.157.253.236.534.236.843 0 .407-.136.743-.407 1.008-.272.264-.685.396-1.239.396a3.42 3.42 0 0 1-1.492-.338c-.472-.226-.958-.615-1.458-1.166-.5-.55-1.06-1.305-1.679-2.264-.185-.253-.394-.43-.628-.529a.84.84 0 0 0-.709.017c-.228.088-.374.275-.44.561-.065.287-.048.64.049 1.058l.506 3.29c.076.33.184.55.326.66.141.111.293.166.456.166.185 0 .41-.06.676-.182l.799-.363c.266-.122.481-.182.644-.182.163 0 .377.06.644.182.266.12.613.242 1.043.363.429.122.969.182 1.621.182Zm15.452-.62c-.718.38-1.565.57-2.543.57-1.652 0-2.893-.402-3.724-1.206-.832-.804-1.247-2.072-1.247-3.802v-7.47c0-.232-.022-.409-.065-.53-.044-.121-.152-.22-.326-.297l-.766-.248c-.185-.088-.305-.196-.359-.322a1.204 1.204 0 0 1-.081-.472c0-.231.081-.421.244-.57a.861.861 0 0 1 .603-.223h.799a.537.537 0 0 0 .309-.116c.109-.077.256-.231.44-.463l3.016-2.528a2.81 2.81 0 0 1 .652-.604c.217-.137.434-.206.652-.206.25 0 .445.077.586.231l.045.055c.111.154.167.378.167.672v2.959h3.407c.239 0 .423.052.554.157.13.105.195.267.195.488 0 .308-.135.573-.407.793l-.061.046c-.274.19-.688.285-1.243.285h-2.445v7.537c0 .826.139 1.438.416 1.835.277.396.682.595 1.214.595.228 0 .44-.05.636-.15.195-.098.372-.228.529-.388.158-.16.307-.339.449-.537.141-.198.277-.396.407-.595a.241.241 0 0 1 .285.058c.082.083.117.25.106.504-.076.893-.323 1.678-.741 2.355a4.37 4.37 0 0 1-1.703 1.587Zm10.675.57c1.38 0 2.597-.27 3.651-.81 1.054-.54 1.874-1.258 2.461-2.156a5.31 5.31 0 0 0 .88-2.967c0-.21-.038-.358-.114-.447a.353.353 0 0 0-.277-.132.64.64 0 0 0-.269.074c-.103.05-.22.146-.35.29-.228.705-.677 1.256-1.345 1.653-.668.396-1.437.595-2.306.595-1.358 0-2.445-.466-3.26-1.397-.478-.546-.815-1.273-1.013-2.18l-.016-.076h7.451c.471 0 .841-.125 1.109-.373l.064-.065c.272-.292.408-.692.408-1.199 0-1.168-.275-2.228-.823-3.181-.549-.954-1.334-1.708-2.355-2.265-1.022-.556-2.239-.835-3.651-.835-1.663 0-3.086.331-4.271.992a6.68 6.68 0 0 0-2.713 2.769c-.625 1.184-.938 2.565-.938 4.14 0 1.499.324 2.818.97 3.959a6.825 6.825 0 0 0 2.698 2.661c1.151.634 2.488.95 4.009.95Zm-2.151-9.669c0 .274.007.537.023.79l.002.037h2.534c.413 0 .619-.232.619-.695 0-1.51-.166-2.59-.497-3.24-.332-.65-.687-.975-1.068-.975-.293 0-.559.124-.798.372s-.435.67-.587 1.265c-.152.595-.228 1.41-.228 2.446Zm19.102 9.339c.261 0 .459-.069.595-.207a.735.735 0 0 0 .203-.537.819.819 0 0 0-.146-.488c-.098-.137-.261-.223-.489-.256l-1.223-.248a.648.648 0 0 1-.456-.338c-.098-.182-.147-.427-.147-.736v-5.818c0-.65.038-1.185.114-1.604.076-.418.188-.73.335-.933.146-.204.317-.306.513-.306s.337.072.424.215c.087.143.136.341.146.595l.017.66c.021.75.225 1.329.611 1.736.386.408.981.612 1.785.612.825 0 1.499-.298 2.021-.893.521-.595.782-1.526.782-2.793 0-1.278-.25-2.231-.75-2.86-.5-.628-1.217-.942-2.151-.942-.772 0-1.483.24-2.135.72-.652.479-1.177 1.212-1.573 2.198a6.54 6.54 0 0 0-.182.515l-.028.095-.124-2.569c-.029-.304-.082-.524-.158-.663l-.03-.048c-.092-.132-.231-.198-.415-.198a2.09 2.09 0 0 0-.473.066 4.958 4.958 0 0 0-.685.232l-4.628 1.338c-.261.1-.446.218-.555.356a.743.743 0 0 0-.162.47c0 .155.035.282.105.381.071.1.182.193.335.281l.423.05a.617.617 0 0 1 .302.272c.06.116.09.306.09.57v8.397c0 .33-.028.568-.082.711a.55.55 0 0 1-.293.314l-.375.149c-.141.099-.253.206-.334.322a.74.74 0 0 0-.123.438c0 .232.068.413.204.546.136.132.323.198.562.198h8.15Zm17.162-.959c-1.032.893-2.515 1.34-4.449 1.34-.652 0-1.193-.061-1.622-.183a7.506 7.506 0 0 1-1.043-.363c-.266-.122-.481-.182-.644-.182-.163 0-.377.06-.644.182l-.798.363c-.267.122-.492.182-.677.182a.726.726 0 0 1-.456-.165c-.141-.11-.25-.33-.326-.661l-.505-3.29c-.098-.418-.114-.771-.049-1.058.065-.286.212-.473.44-.561a.84.84 0 0 1 .709-.017c.233.1.443.276.627.529.62.959 1.179 1.713 1.679 2.264.5.551.986.94 1.459 1.166.473.226.97.338 1.491.338.554 0 .967-.132 1.239-.396.272-.265.407-.6.407-1.008 0-.309-.078-.59-.236-.843-.158-.254-.445-.488-.864-.703-.418-.215-1.018-.427-1.801-.636-1.206-.309-2.206-.711-2.999-1.207-.793-.496-1.382-1.09-1.768-1.785-.386-.694-.579-1.504-.579-2.43 0-1.046.258-1.947.774-2.702.517-.755 1.223-1.336 2.119-1.744.897-.408 1.904-.612 3.024-.612.673 0 1.222.067 1.646.199.424.132.752.264.986.396.233.133.41.199.53.199.13 0 .323-.064.578-.19.256-.127.514-.25.774-.372.261-.121.478-.182.652-.182.196 0 .353.066.473.198.119.133.201.358.244.678l.424 3.041c.076.441.087.78.033 1.017a.575.575 0 0 1-.424.454c-.185.044-.38.009-.587-.107a2.244 2.244 0 0 1-.619-.554c-.793-1.2-1.519-2.05-2.176-2.545-.657-.496-1.355-.744-2.094-.744-.533 0-.935.116-1.206.347a1.136 1.136 0 0 0-.408.91c0 .253.06.49.179.71.12.22.34.427.661.62.32.193.774.383 1.36.57 1.576.485 2.798 1 3.668 1.546.869.545 1.477 1.17 1.825 1.875.348.706.522 1.527.522 2.463 0 1.543-.516 2.76-1.549 3.653Z" fill="#fff"/><path fill-rule="evenodd" clip-rule="evenodd" d="M14.389 4.447C10.875.935 5.665.43 2.776 3.322c-2.89 2.89-2.385 8.1 1.124 11.613a10.607 10.607 0 0 0 3.153 2.164c.373-2.17 1.444-4.257 3.07-5.97a23.032 23.032 0 0 0-1.666-.511C5.046 9.682 3.35 6.836 2.955 3.5c.327.394.625.807.923 1.22.577.798 1.15 1.593 1.928 2.233 1.21.997 2.539 1.382 3.992 1.802l.17.05a7.17 7.17 0 0 1 1.835.84c1.443-1.055 3.07-1.757 4.75-2.047a10.573 10.573 0 0 0-2.164-3.151ZM8.446 17.933c.224-2.173 1.277-4.299 2.964-5.986 3.514-3.512 8.724-4.019 11.613-1.125 2.89 2.89 2.386 8.1-1.127 11.613-1.687 1.688-3.813 2.74-5.986 2.966-.29.028-.576.043-.857.043-1.869 0-3.538-.655-4.768-1.885-1.416-1.415-2.07-3.413-1.839-5.626Zm5.14 1.784c1.152-.879 2.399-1.227 3.755-1.598 3.41-.936 5.104-3.781 5.502-7.117a22.5 22.5 0 0 0-.916 1.21c-.579.803-1.154 1.6-1.936 2.243-1.214.998-2.545 1.383-4.005 1.806l-.155.045c-3.338.969-4.988 3.79-5.369 7.074a25.1 25.1 0 0 0 .93-1.213c.65-.886 1.293-1.76 2.194-2.45Z" fill="#0E8784"/></svg>